PathFileType	4	(X/Y/Z)	c:/Users/goper/Files/vsCode/490R/osim_files/A01/A01_Fast_02.trc
DataRate	CameraRate	NumFrames	NumMarkers	Units                	OrigDataRate	OrigDataStartFrame	OrigNumFrames
120.00	120.00	9	36	mm	120.0	984	1574
                Frame#	Time	Mobility_markerset:LPSIS			Mobility_markerset:LASIS			Mobility_markerset:LTH1			Mobility_markerset:LTH2			Mobility_markerset:LTH3			Mobility_markerset:LTH4			Mobility_markerset:LLFE			Mobility_markerset:LMFE			Mobility_markerset:LSH1			Mobility_markerset:LSH2			Mobility_markerset:LSH3			Mobility_markerset:LSH4			Mobility_markerset:LLMAL			Mobility_markerset:LMMAL			Mobility_markerset:LCAL			Mobility_markerset:LMTP5			Mobility_markerset:LTOE			Mobility_markerset:LMTP1			Mobility_markerset:RPSIS			Mobility_markerset:RASIS			Mobility_markerset:RTH1			Mobility_markerset:RTH2			Mobility_markerset:RTH3			Mobility_markerset:RTH4			Mobility_markerset:RLFE			Mobility_markerset:RMFE			Mobility_markerset:RSH1			Mobility_markerset:RSH2			Mobility_markerset:RSH3			Mobility_markerset:RSH4			Mobility_markerset:RLMAL			Mobility_markerset:RMMAL			Mobility_markerset:RCAL			Mobility_markerset:RMTP1			Mobility_markerset:RTOE			Mobility_markerset:RMTP5		
		X1	Y1	Z1	X2	Y2	Z2	X3	Y3	Z3	X4	Y4	Z4	X5	Y5	Z5	X6	Y6	Z6	X7	Y7	Z7	X8	Y8	Z8	X9	Y9	Z9	X10	Y10	Z10	X11	Y11	Z11	X12	Y12	Z12	X13	Y13	Z13	X14	Y14	Z14	X15	Y15	Z15	X16	Y16	Z16	X17	Y17	Z17	X18	Y18	Z18	X19	Y19	Z19	X20	Y20	Z20	X21	Y21	Z21	X22	Y22	Z22	X23	Y23	Z23	X24	Y24	Z24	X25	Y25	Z25	X26	Y26	Z26	X27	Y27	Z27	X28	Y28	Z28	X29	Y29	Z29	X30	Y30	Z30	X31	Y31	Z31	X32	Y32	Z32	X33	Y33	Z33	X34	Y34	Z34	X35	Y35	Z35	X36	Y36	Z36

984	8.19167	0.00000	0.00000	0.00000	-3066.25586	1017.73816	404.29016	-3015.57300	686.06732	456.67310	-3034.20972	642.03021	443.77643	-3073.51318	705.66522	453.18335	-3082.80591	662.32770	438.48917	-3080.96704	541.67743	398.96475	-3094.19580	554.71069	261.40967	-3042.32422	378.74783	379.92795	-3042.68237	331.64133	381.29568	-3104.61621	373.08218	377.14606	-3095.26367	328.47357	376.44708	-3053.06396	89.87855	346.47141	-3043.77124	91.19095	267.55035	-2973.71851	59.83913	307.46765	-3196.59448	42.29443	361.96387	-3221.85742	67.14577	295.12582	-3205.30615	54.71722	261.57315	-2809.76831	1019.57410	225.41125	-3039.82666	974.26166	148.43224	-2979.51440	653.25433	62.49469	-2983.42236	611.41095	62.87983	-2918.89087	641.74866	68.26576	-2932.74097	600.83051	69.86760	-2980.62769	463.57144	93.01706	-3015.32935	465.24203	213.63516	-2769.01831	419.80960	106.43255	-2730.52954	394.31512	106.75871	-2797.95972	367.32391	94.01898	-2757.61865	348.39557	96.65479	-2598.99170	281.87833	138.43959	-2629.99585	264.86984	219.86690	-2563.58276	321.72687	191.28786	-2603.21582	119.58382	227.35098	-2625.84448	92.19753	181.80669	-2574.98291	134.03395	118.20885
985	8.20000	0.00000	0.00000	0.00000	-3076.04053	1018.28467	406.02286	-3021.80005	686.81940	457.83200	-3039.59302	642.52661	444.83075	-3080.06079	705.07190	453.66211	-3087.88354	662.05139	439.79742	-3085.53052	541.53149	400.01828	-3099.02783	554.73645	262.54996	-3045.38696	379.05597	380.59937	-3045.23926	331.82419	381.78668	-3107.76636	372.83749	377.86948	-3097.82056	328.27350	377.02478	-3053.39087	90.05231	346.60922	-3044.09937	91.47616	267.54327	-2973.83081	60.74435	307.34528	-3196.78979	42.14294	361.95105	-3222.16846	66.85686	295.12723	-3205.51172	54.54020	261.55154	-2819.13232	1020.51758	227.88548	-3049.29028	975.27496	149.18886	-2994.78223	655.60620	62.57807	-3000.49707	613.93018	63.07299	-2934.11035	643.07068	69.00000	-2949.26733	602.20111	70.46889	-3001.04248	466.23666	92.91251	-3036.21924	468.64716	213.64795	-2789.92188	422.65613	107.55756	-2752.77148	397.42279	107.81258	-2818.27124	370.72696	94.60254	-2778.65186	351.70456	97.33380	-2619.91943	284.47406	139.60983	-2651.32861	267.88251	220.78770	-2583.18896	323.29117	192.49779	-2628.15942	122.05463	227.78802	-2651.58838	95.31657	182.21040	-2599.75854	136.02066	118.66299
986	8.20833	0.00000	0.00000	0.00000	-3085.09326	1018.78790	407.50076	-3027.59692	687.59686	458.97574	-3045.20288	642.84979	446.08737	-3086.05176	705.10693	454.98178	-3093.45386	662.10394	441.07751	-3090.08105	541.38202	401.13809	-3103.66016	554.75739	263.67587	-3048.11865	379.46408	381.41525	-3047.92920	332.32425	382.56256	-3110.73315	372.64398	378.63876	-3100.54468	328.18643	377.71820	-3053.75122	90.27914	346.79971	-3044.67554	91.69188	267.50912	-2974.09424	61.22034	307.59106	-3196.99268	42.02299	361.95563	-3222.19214	66.52666	295.08105	-3205.75659	54.41199	261.57205	-2828.21509	1022.01471	230.08659	-3058.53491	976.32898	149.71877	-3009.82056	658.07965	62.81434	-3016.69995	616.46948	63.12966	-2950.18848	644.09497	69.52083	-2965.80176	603.65674	71.10369	-3021.02979	468.50751	93.09783	-3056.83472	472.09949	213.90559	-2811.23755	425.96286	108.24343	-2773.77490	400.30917	108.70560	-2839.57349	373.58029	95.35210	-2799.20459	354.71722	97.96093	-2641.48511	285.89877	140.74017	-2673.52734	269.97000	221.68185	-2603.23535	323.67068	193.61842	-2653.91162	123.64912	228.41272	-2678.26392	97.77674	182.85162	-2625.17285	137.20422	119.27304
987	8.21667	0.00000	0.00000	0.00000	-3094.38989	1019.47235	408.82980	-3033.17480	688.17926	460.16614	-3050.33472	643.06476	447.28268	-3091.86499	704.99982	456.41846	-3098.82275	662.08215	442.45804	-3094.42432	541.26813	402.24545	-3108.15039	554.82324	264.83023	-3051.39917	379.62808	382.23926	-3050.42456	332.62357	383.17365	-3113.83765	372.44876	379.44464	-3102.91187	327.98413	378.42590	-3054.06201	90.49036	346.99445	-3045.01392	91.97710	267.58975	-2974.34424	61.54909	307.57080	-3197.12573	41.87408	361.95483	-3222.64990	66.32491	295.22913	-3205.93677	54.32755	261.59604	-2837.27271	1023.77264	232.04176	-3067.62134	977.70831	150.22977	-3025.05273	660.55225	63.01793	-3032.81055	619.10254	63.35742	-2965.46167	645.70172	70.29498	-2982.23804	605.24640	71.69285	-3041.99829	471.43918	93.23942	-3077.24146	475.74741	214.07672	-2832.48120	428.06973	108.83704	-2795.29175	402.06744	109.18765	-2861.99731	375.66815	96.09904	-2820.17896	356.86212	97.94981	-2663.34570	286.26706	141.75998	-2696.05518	271.09799	222.64252	-2623.78906	322.95395	194.82315	-2680.42236	124.32419	229.05627	-2705.63525	99.41038	183.35648	-2651.21167	137.36803	120.01900
988	8.22500	0.00000	0.00000	0.00000	-3103.07861	1020.18884	409.91333	-3038.47192	688.76898	461.27774	-3055.28931	643.21069	448.39410	-3097.35889	704.86462	457.88089	-3103.92920	661.97363	443.88806	-3098.65576	541.15900	403.36432	-3112.53955	554.83728	265.97058	-3054.40234	379.97787	382.91248	-3052.71411	332.81927	383.84790	-3116.37964	372.14014	380.14273	-3105.25952	327.73434	379.15607	-3054.39185	90.68108	347.16330	-3045.34521	92.28661	267.58749	-2974.59985	62.03006	307.65167	-3197.38086	41.70895	362.07297	-3223.03052	66.14718	295.25534	-3206.10547	54.21780	261.62424	-2846.49976	1025.67346	233.90091	-3076.58203	979.26862	150.78117	-3040.07544	663.17407	63.34929	-3050.15283	622.64612	64.39728	-2982.23633	647.87573	71.46115	-2999.46826	606.94476	72.32641	-3062.86011	474.46954	93.67236	-3097.47314	479.73590	214.44385	-2853.31763	429.51532	108.90887	-2816.74072	403.06711	109.45520	-2882.83179	377.38019	96.64861	-2842.74268	357.80615	99.16267	-2685.38159	285.65469	142.80489	-2718.62744	271.11749	224.17653	-2644.59692	321.04327	195.98097	-2707.82227	124.34446	229.72597	-2734.16626	100.53096	183.96649	-2677.66650	136.42003	120.94526
989	8.23333	0.00000	0.00000	0.00000	-3112.18066	1021.28430	410.84607	-3045.34375	688.94086	464.23059	-3060.55835	644.17218	449.26855	-3102.80835	704.76959	459.29108	-3111.81299	665.68909	441.78857	-3102.64526	540.93359	404.39627	-3116.77661	554.92468	267.03107	-3056.94849	380.27365	383.66019	-3055.07129	332.98212	384.39584	-3118.74243	371.82751	380.63696	-3107.62744	327.62115	379.78000	-3054.66772	90.82475	347.27292	-3045.80176	92.62234	267.58740	-2974.81201	62.52158	307.72440	-3197.49658	41.58218	362.08691	-3223.24658	65.97278	295.30179	-3206.43774	54.18863	261.92056	-2855.78247	1027.63293	235.55701	-3085.51562	980.97668	151.35641	-3055.29419	666.04010	63.67621	-3065.45532	625.45294	65.30933	-2996.89502	649.40985	71.99233	-3016.05981	608.78497	72.93874	-3083.58032	477.73590	94.27630	-3117.51953	484.08276	215.03032	-2874.82275	429.82068	109.15290	-2838.29224	403.05054	109.60939	-2905.54834	378.00302	97.23676	-2864.91235	358.14877	99.68111	-2708.07080	283.94638	143.84264	-2741.72949	270.43011	225.00040	-2665.89551	318.10947	197.15836	-2735.69165	123.51434	230.33629	-2762.24390	100.44755	184.38103	-2704.91162	134.79456	121.64930
990	8.24167	0.00000	0.00000	0.00000	-3120.83667	1022.35315	411.62375	-3049.77051	689.72797	464.98584	-3065.37915	644.53015	450.15250	-3106.91577	704.55371	459.98862	0.00000	0.00000	0.00000	-3106.45947	540.79810	405.26727	-3120.84277	554.88641	267.95755	-3059.56299	380.56342	384.27359	-3057.40991	333.44321	385.07761	-3121.47314	371.72882	381.27884	-3109.92798	327.60068	380.30734	-3054.95850	91.03007	347.40497	-3045.26611	92.73917	267.97546	-2975.02759	62.95089	307.81824	-3197.60181	41.48801	362.09769	-3223.31055	65.75396	295.33926	-3206.59912	54.08827	261.57208	-2865.27271	1029.45227	237.20094	-3094.31934	982.79358	152.06583	-3070.75366	669.17401	64.03227	-3081.14111	628.32001	65.84959	-3012.84009	650.96210	72.57913	-3032.59814	610.86707	73.53990	-3103.93408	481.17914	94.98310	-3136.89062	488.50211	215.86554	-2895.80591	429.68112	109.12543	-2859.80420	402.41251	109.68988	-2927.55469	378.21774	97.96096	-2887.09595	357.73294	100.35055	-2730.66235	281.41824	144.77771	-2765.22925	268.90842	225.83624	-2687.61914	314.11447	198.21304	-2764.27710	122.09179	230.87680	-2792.58081	100.20799	184.84206	-2732.81079	132.42545	122.32301
991	8.25000	0.00000	0.00000	0.00000	-3129.32422	1023.56140	412.34729	-3053.39697	690.76215	463.13571	-3070.12256	644.92407	450.81992	-3112.16919	704.48297	461.15424	-3118.70508	661.84753	447.89392	-3110.30713	540.73499	406.00378	-3124.72217	554.91766	268.74728	-3062.15063	380.77377	384.83084	-3059.69458	333.84323	385.51505	-3123.97754	371.57224	381.77933	-3113.36597	328.14120	380.82849	-3055.19482	91.29595	347.46997	-3045.43262	93.07524	267.94287	-2974.71582	63.58765	307.97559	-3197.68066	41.38997	362.10986	-3223.51709	65.60370	295.36865	-3206.72192	54.05127	261.89401	-2874.12378	1031.48840	238.52962	-3103.30908	984.74469	152.97746	-3085.92847	672.24023	64.48172	-3096.59839	631.05035	66.55527	-3028.27808	652.92877	73.34458	-3049.20166	613.09314	74.20251	-3123.88379	484.91965	95.92593	-3155.96436	493.27304	216.88051	-2915.71118	427.88876	111.02488	-2880.94946	401.14941	109.82019	-2948.66797	378.35590	98.60476	-2910.47119	356.49649	101.31232	-2753.78174	277.99866	145.62128	-2789.27905	266.31522	226.65822	-2709.65186	309.13699	199.09970	-2793.29761	119.79114	231.44952	-2822.38721	99.11800	185.35019	-2761.55249	129.28143	122.88653
992	8.25833	0.00000	0.00000	0.00000	-3137.72192	1024.86755	413.09760	-3058.41260	691.37982	463.53610	-3076.40674	645.08417	451.30762	-3117.62769	704.64124	461.94257	-3123.67749	661.75531	448.95462	-3114.05762	540.76855	406.64322	-3128.91016	555.13757	269.55527	-3064.71558	381.13943	385.38342	-3061.88794	334.18356	385.95206	-3126.74707	371.50342	382.34753	-3115.51074	328.10699	381.16504	-3055.62329	91.54544	347.68454	-3045.56421	93.50046	267.95389	-2974.94189	63.84890	307.98697	-3197.75366	41.42616	362.06702	-3223.69360	65.45306	295.40906	-3207.08813	54.04833	261.95105	-2883.09619	1033.39636	239.61270	-3112.35913	986.92267	154.04665	-3101.89185	675.73071	64.79300	-3111.80518	633.94568	67.27055	-3044.73706	654.77802	74.01010	-3065.58960	615.45215	74.97574	-3143.22705	488.78320	97.03009	-3174.59644	498.13184	218.04010	0.00000	0.00000	0.00000	-2902.09668	399.32315	110.30582	0.00000	0.00000	0.00000	-2932.89893	355.22165	102.35792	-2778.06372	273.48038	146.46568	-2813.22827	263.11292	227.47034	-2732.03955	302.92636	199.92413	-2822.81714	116.90907	231.92590	-2852.61816	97.51400	185.94728	-2791.27930	125.55461	123.34608
